<svg width="74" height="206" viewBox="0 0 74 206" fill="none" xmlns="http://www.w3.org/2000/svg">
<path opacity="0.1" d="M41.2992 205.869C59.3594 205.869 74 203.52 74 200.623C74 197.726 59.3594 195.377 41.2992 195.377C23.239 195.377 8.59827 197.726 8.59827 200.623C8.59827 203.52 23.239 205.869 41.2992 205.869Z" fill="#0089FF"/>
<path d="M30.9289 202.963C30.9289 202.963 25.5593 204.934 21.8677 205.182C19.9078 205.312 18.8775 204.112 18.3472 202.956C18.0591 202.318 17.8712 201.64 17.7902 200.945L18.2768 195.632L18.5318 192.807L26.3748 190.769L27.4856 194.164L27.5897 194.419C28.0327 195.555 29.8248 200.161 29.7711 201.123C29.7667 201.371 29.813 201.618 29.907 201.849C30.001 202.079 30.1409 202.288 30.3181 202.463C30.4997 202.655 30.7049 202.823 30.9289 202.963Z" fill="white"/>
<path d="M67.59 200.261C67.6038 200.424 67.5879 200.587 67.543 200.744C67.543 200.744 56.0588 202.654 53.7096 200.744C53.0492 200.186 52.2795 199.771 51.4497 199.527C50.6199 199.283 49.7482 199.215 48.8904 199.326C48.8904 199.326 44.447 199.447 43.7053 197.985C43.3966 197.372 43.4771 196.182 43.6684 195.012C43.8638 193.912 44.1238 192.824 44.447 191.754L44.6249 191.613L45.682 190.765L58.059 190.4H58.1529C58.0925 192.927 62.3513 195.827 62.3513 195.827C66.8852 197.503 67.5531 199.396 67.59 200.261Z" fill="white"/>
<path opacity="0.1" d="M67.5932 200.261C67.6051 200.424 67.5881 200.587 67.5429 200.744C67.5429 200.744 56.0586 202.654 53.7128 200.744C53.052 200.185 52.2818 199.771 51.4513 199.527C50.6209 199.282 49.7486 199.214 48.8902 199.326C48.8902 199.326 44.4435 199.447 43.7018 197.985C43.3964 197.372 43.4736 196.182 43.6649 195.009C45.3765 195.18 48.0781 195.605 49.1386 196.624C50.7427 198.166 53.4611 199.708 55.1257 199.832C56.4412 199.913 64.2641 200.161 67.5932 200.261Z" fill="black"/>
<path opacity="0.1" d="M30.929 202.963C30.929 202.963 25.5594 204.934 21.8677 205.182C19.9078 205.313 18.8775 204.113 18.3473 202.956C19.7165 203.415 21.6127 203.895 22.6094 203.456C23.7907 202.929 27.979 202.594 30.3282 202.45C30.5054 202.646 30.7073 202.819 30.929 202.963Z" fill="black"/>
<path d="M38.8961 44.1209C34.4661 42.4014 28.7676 36.72 30.1906 34.0653C30.5051 33.3949 30.6928 32.6721 30.7443 31.9335C30.8359 30.9305 30.8494 29.9219 30.7846 28.9168C30.6847 27.2697 30.4863 25.6299 30.1906 24.0063C30.1906 24.0063 44.0207 24.3181 43.2153 26.3527C42.9804 26.9526 42.9401 27.9884 43.0072 29.1448C43.0743 30.3012 43.2388 31.6185 43.4133 32.7279C43.6516 34.2463 43.8965 35.4094 43.8965 35.4094C43.8965 35.4094 43.0475 36.5926 42.5541 36.6563C42.0608 36.72 45.2524 46.5846 38.8961 44.1209Z" fill="#CF6F80"/>
<path d="M32.7211 151.532C32.4966 152.087 32.3258 152.663 32.211 153.251C31.9312 154.862 31.8534 156.501 31.9795 158.132C32.1036 160.478 31.9795 176.201 31.9795 176.201C31.9795 176.201 29.3249 180.395 27.8415 181.873C26.3582 183.351 30.8619 186.006 30.8619 186.006C31.5331 189.83 27.4656 194.147 27.4656 194.147C23.331 189.153 18.3306 195.378 18.3306 195.378C18.3306 195.378 15.6122 190.685 14.9343 189.009C14.2564 187.333 17.5889 186.177 18.7602 185.493C19.9314 184.809 18.6998 180.8 18.6998 180.8C18.6998 180.8 17.7131 177.284 16.5385 174.076C15.3639 170.869 17.8339 154.904 17.8339 154.904C17.8339 154.904 17.9614 152.065 18.2668 151.076C18.4192 150.362 18.4499 149.628 18.3575 148.904C18.3373 148.659 18.3138 148.458 18.2971 148.317C18.2803 148.176 18.2668 148.116 18.2668 148.116L18.3138 148.036L19.9918 144.912C19.9918 144.912 33.5266 149.564 32.7211 151.532Z" fill="#0089FF"/>
<path d="M58.1595 190.383C58.1595 190.383 55.1391 190.32 53.5282 191.724C51.9174 193.128 44.1314 192.032 44.467 191.724C44.8026 191.416 44.7724 189.136 44.7724 189.136C40.2049 182.905 44.1012 180.378 44.1012 180.378C44.1012 180.378 42.0641 170.574 41.695 166.937C41.4365 164.4 41.1177 157.552 40.9466 153.674C40.8727 151.998 40.8291 150.841 40.8291 150.841L44.5274 150.107L45.0073 150.013L54.0082 148.207C54.0082 148.207 54.2565 149.883 54.4243 151.254C54.5092 151.839 54.5551 152.429 54.5619 153.02C54.5049 153.69 54.5619 155.792 54.5619 155.792L54.8707 162.08C54.6714 162.74 54.5675 163.425 54.5619 164.115C54.6257 164.919 55.7969 176.386 55.7969 176.386C55.7969 176.386 57.834 183.23 57.1393 183.723C56.4446 184.216 58.1595 190.383 58.1595 190.383Z" fill="#0089FF"/>
<path d="M48.5547 18.9618C48.5912 22.003 47.4166 24.934 45.2893 27.1103C43.162 29.2865 40.2563 30.5295 37.2114 30.566C34.1665 30.6024 31.2317 29.4293 29.0529 27.3046C26.874 25.1799 25.6294 22.2778 25.5929 19.2366C25.5929 19.1428 25.5929 19.0556 25.5929 18.9618C25.5929 15.9197 26.8028 13.0023 28.9565 10.8512C31.1103 8.70015 34.0313 7.4917 37.0771 7.4917C40.123 7.4917 43.044 8.70015 45.1977 10.8512C47.3515 13.0023 48.5614 15.9197 48.5614 18.9618H48.5547Z" fill="#CF6F80"/>
<path d="M54.5787 66.1327L49.5144 151.103L42.9098 151.535L25.8043 102.266L28.6099 43.7724L29.204 31.4141L36.8086 37.6519L40.5606 40.7256L43.4971 33.2609L48.9574 38.0139L54.5787 66.1327Z" fill="#0089FF"/>
<path d="M44.6382 152.524C30.8786 154.87 18.2734 148.143 18.2734 148.143L18.3976 145.864C18.3976 145.864 18.7064 120.024 17.8405 118.043C16.9747 116.062 16.3001 106.02 16.7934 104.475C17.2868 102.93 14.9946 79.8251 14.9946 79.8251L14.6221 70.4399L1.10413 64.9529L7.14493 52.3733C7.95876 50.6103 8.66044 48.7978 9.24579 46.9466C10.2962 43.6886 15.1893 40.4775 15.1893 40.4775C15.1893 40.4775 20.1897 37.2731 22.163 37.3938C24.1364 37.5145 26.7406 34.5615 26.7406 34.5615C28.6569 29.6912 30.7678 31.88 30.7678 31.88C30.7678 32.1146 30.5665 32.2151 30.6739 32.6006C32.1505 37.786 41.158 54.8403 41.3225 55.1419L42.4333 81.8429L43.5207 115.65L44.6382 152.524Z" fill="white"/>
<path d="M41.3023 55.1586C39.8189 54.5385 31.9793 45.6024 31.9793 45.6024V43.5645C31.694 42.8941 29.9993 43.303 28.6233 43.7723L29.2039 31.4274L29.8751 31.9804C31.3551 37.1557 41.1378 54.857 41.3023 55.1586Z" fill="white"/>
<path d="M18.2735 98.9978C18.4615 98.9978 27.8449 98.0123 27.8449 98.0123C27.8449 98.0123 33.5232 109.191 33.1541 111.872C32.7849 114.554 32.1037 116.991 29.8216 116.565C27.5395 116.139 17.5184 116.9 17.5184 116.9L18.2735 98.9978Z" fill="white"/>
<path d="M25.3445 93.7722C25.3445 93.7722 33.956 98.3978 34.1406 99.8056C34.3252 101.213 29.7576 99.1888 28.771 98.9408C28.1211 98.7866 27.4602 98.6835 26.7943 98.6324L20.2131 98.8101L25.3445 93.7722Z" fill="#CF6F80"/>
<path d="M38.5236 56.1038C39.024 56.1038 39.4297 55.6986 39.4297 55.1988C39.4297 54.699 39.024 54.2938 38.5236 54.2938C38.0231 54.2938 37.6174 54.699 37.6174 55.1988C37.6174 55.6986 38.0231 56.1038 38.5236 56.1038Z" fill="#3F3D56"/>
<path d="M40.1915 95.2773C40.692 95.2773 41.0977 94.8721 41.0977 94.3723C41.0977 93.8725 40.692 93.4673 40.1915 93.4673C39.6911 93.4673 39.2854 93.8725 39.2854 94.3723C39.2854 94.8721 39.6911 95.2773 40.1915 95.2773Z" fill="#3F3D56"/>
<path d="M39.4298 75.6923C39.9303 75.6923 40.336 75.2871 40.336 74.7873C40.336 74.2875 39.9303 73.8823 39.4298 73.8823C38.9294 73.8823 38.5237 74.2875 38.5237 74.7873C38.5237 75.2871 38.9294 75.6923 39.4298 75.6923Z" fill="#3F3D56"/>
<path d="M60.69 98.4447C60.69 98.4447 61.3042 99.3698 60.69 99.7854C60.0759 100.201 60.7471 101.267 60.7471 101.267C60.7471 101.267 59.2067 102.165 59.8846 102.98C60.5625 103.794 60.133 107.451 60.133 107.451L58.2871 110.532C58.2871 110.532 58.3979 112.506 58.408 115.174C58.408 119.337 58.163 125.189 56.8072 127.857L56.9917 149.748C56.9917 149.748 50.5046 152.118 45.0746 151.394L44.2725 116.267C44.2725 116.267 45.4437 96.3464 45.88 92.5253C46.1337 90.5416 46.2358 88.5414 46.1854 86.5422C46.1854 86.5422 46.0008 80.5625 45.3833 77.7905C45.3833 77.7905 44.7121 65.764 44.6416 62.4356C44.6114 60.8434 44.6953 56.1977 44.7893 51.78C44.8933 46.9499 45.0108 42.3947 45.0108 42.3947L43.3932 32.5804C43.3932 32.5804 45.0108 32.5804 45.3833 33.0799C45.5471 33.236 45.7271 33.3742 45.9203 33.4922C48.0346 34.9201 55.505 39.311 55.505 39.311C55.505 39.311 59.6296 40.9534 60.6364 43.3064C61.6432 45.6594 62.3144 47.3287 62.7943 47.999C63.2742 48.6694 63.5359 51.8202 63.5359 51.8202C63.5359 51.8202 64.9589 57.6189 66.0697 58.601C67.1806 59.5831 67.9827 65.8176 67.9827 65.8176L58.1663 73.5269C58.1663 73.5269 57.3038 86.3512 57.1159 86.8472C56.928 87.3433 60.69 98.4447 60.69 98.4447Z" fill="white"/>
<path d="M48.5546 44.4997L49.444 47.0773L44.7791 51.77C44.8798 46.9399 45.0006 42.3847 45.0006 42.3847L43.3796 32.5704C43.3796 32.5704 45.0006 32.5704 45.3698 33.0699C45.5344 33.225 45.7143 33.3632 45.9067 33.4821L49.897 44.9187L48.5546 44.4997Z" fill="white"/>
<path d="M41.8426 0.751125C40.0987 -0.0681966 38.1152 -0.223158 36.2649 0.315376C35.3353 0.590229 34.4594 1.03603 33.5164 1.26061C31.5028 1.74663 29.1536 1.22039 27.4252 2.39689C26.4654 3.06727 25.8882 4.12646 25.3512 5.15883L24.0088 7.7096C23.2772 9.10733 22.5389 10.5285 22.2335 12.067C21.9281 13.6055 22.1127 15.3284 23.0893 16.5686C23.7974 17.4669 24.8512 18.0334 25.623 18.8814C26.0868 19.3984 26.4383 20.0057 26.6555 20.6651C26.8726 21.3244 26.9508 22.0216 26.8849 22.7126C27.7575 22.3774 27.8447 21.1942 27.8649 20.2557C27.9026 18.5954 28.1899 16.9502 28.7173 15.3753C29.0236 14.3375 29.5437 13.375 30.2443 12.5497C30.5973 12.1389 31.0341 11.8083 31.5255 11.58C32.0169 11.3516 32.5515 11.2308 33.0935 11.2257C34.4359 11.2726 35.6407 12.2011 36.9697 12.0871C37.9765 12.0033 38.8692 11.3196 39.8827 11.1821C40.7763 11.0977 41.6693 11.3499 42.3863 11.8894C43.0958 12.4271 43.7174 13.0716 44.2287 13.7999C46.0611 16.2133 47.5478 19.0356 47.6351 22.0623C48.0143 22.3372 48.5613 21.9752 48.7493 21.5461C48.9372 21.1171 48.9439 20.6143 49.1822 20.2054C49.4574 19.7328 49.9843 19.478 50.3971 19.1227C51.4441 18.2211 51.7059 16.7027 51.6656 15.325C51.6254 13.9474 51.3569 12.5497 51.6187 11.1956C51.7764 10.3676 52.1321 9.58665 52.3268 8.76545C52.5214 7.94424 52.5449 7.02246 52.0851 6.31522C51.4139 5.27949 50.0011 5.07168 48.7694 4.97447C47.37 4.8538 46.1182 5.008 45.2255 3.83149C44.8054 3.21833 44.3338 2.64196 43.8159 2.10863C43.6314 1.93098 41.8426 0.824866 41.8426 0.751125Z" fill="#512E4E"/>
<path d="M2.0371 64.2222L1.11084 64.9629L0 74.9515C0 74.9515 0.617495 79.3894 0.493323 80.0698C0.369151 80.7502 3.02712 86.8506 3.02712 86.8506C3.02712 86.8506 11.793 102.454 15.3739 103.255L27.4756 94.6203L24.2639 90.5511C24.2639 90.5511 23.1531 90.1187 22.8745 90.5511C22.8745 90.5511 16.9176 80.3145 16.3001 79.5771C15.6826 78.8397 15.8068 77.3548 15.8068 77.3548C15.8068 77.3548 14.8805 76.3693 15.1893 75.4442C15.498 74.5191 13.3972 71.3147 13.3972 71.3147L15.3101 69.5282L2.0371 64.2222Z" fill="white"/>
<path d="M59.8846 102.997C60.5558 103.808 60.133 107.468 60.133 107.468L58.2872 110.532C58.2872 110.532 58.3979 112.506 58.408 115.174L55.2365 116.163C54.9611 116.249 54.6691 116.268 54.3848 116.219C54.1004 116.169 53.8321 116.052 53.6022 115.878C53.3722 115.704 53.1873 115.477 53.063 115.217C52.9386 114.957 52.8784 114.671 52.8873 114.383L53.4277 97.0269L60.6901 99.8055C60.0692 100.235 60.7471 101.287 60.7471 101.287C60.7471 101.287 59.2067 102.182 59.8846 102.997Z" fill="white"/>
<path d="M62.2943 94.7443C62.2943 94.7443 61.8009 97.8917 60.5659 98.0761C59.3309 98.2604 58.7771 103.168 57.5455 102.997C56.3138 102.826 57.1293 98.4314 57.173 97.58C57.2166 96.7286 55.8306 93.2024 56.8642 92.4013C57.8979 91.6002 61.1868 92.4013 61.1868 92.4013L62.2943 94.7443Z" fill="#CF6F80"/>
<path d="M65.9386 65.1473L67.9724 65.8177C67.9724 65.8177 68.902 69.3942 68.902 71.3047C68.902 73.2153 70.1974 73.403 70.1974 73.403C70.1974 73.403 71.617 75.0789 70.8686 76.3024C70.1202 77.5258 69.8182 80.5559 69.8182 80.5559C69.8182 80.5559 70.0665 86.3513 68.9557 87.1524C67.8448 87.9535 67.6133 89.8674 67.6133 89.8674C67.6133 89.8674 65.5762 93.5042 65.64 94.3689C65.7037 95.2337 62.7974 101.089 62.7974 101.089C62.7974 101.089 64.217 93.8125 55.9445 90.6685C55.9445 90.6685 55.8841 88.2015 56.5016 87.5244C57.1191 86.8473 58.0823 86.5189 57.4782 83.1134C56.8741 79.7079 57.3037 75.6018 57.3037 74.7806C57.3037 73.9594 59.1562 68.8411 59.1562 68.8411L65.9386 65.1473Z" fill="white"/>
</svg>
