<svg width="72" height="206" viewBox="0 0 72 206" fill="none" xmlns="http://www.w3.org/2000/svg">
<path d="M23.0009 200L28.4215 200L31 180L23 180L23.0009 200Z" fill="#A0616A"/>
<path d="M22 199L32.3828 199H32.3832C34.1381 199 35.821 199.714 37.0619 200.986C38.3027 202.257 38.9999 203.981 39 205.779V205.999L22.0003 206L22 199Z" fill="#2F2E41"/>
<path d="M44.0009 200L49.4215 200L52 180L44 180L44.0009 200Z" fill="#A0616A"/>
<path d="M43 199L53.3828 199H53.3832C55.1381 199 56.821 199.714 58.0619 200.986C59.3027 202.257 59.9999 203.981 60 205.779V205.999L43.0003 206L43 199Z" fill="#2F2E41"/>
<path d="M7.25591 119.532C7.67089 119.048 7.9834 118.471 8.17142 117.841C8.35944 117.211 8.41839 116.544 8.34413 115.886C8.26987 115.229 8.06419 114.597 7.7416 114.036C7.41901 113.474 6.98734 112.997 6.477 112.637L10 97L2.76541 99.8084L0.529051 114.227C0.0306719 115.201 -0.122401 116.34 0.0988299 117.429C0.320061 118.518 0.900235 119.481 1.7294 120.135C2.55857 120.788 3.57914 121.088 4.59771 120.977C5.61628 120.866 6.56208 120.352 7.25591 119.532Z" fill="#9E616A"/>
<path d="M64.0185 118.532C63.562 118.048 63.2182 117.471 63.0114 116.841C62.8046 116.211 62.7398 115.544 62.8215 114.886C62.9031 114.229 63.1294 113.597 63.4842 113.036C63.8391 112.474 64.3139 111.997 64.8753 111.637L61 96L68.958 98.8084L71.418 113.227C71.9662 114.201 72.1346 115.34 71.8913 116.429C71.6479 117.518 71.0098 118.481 70.0977 119.135C69.1856 119.788 68.0629 120.088 66.9425 119.977C65.8221 119.866 64.7817 119.352 64.0185 118.532Z" fill="#9E616A"/>
<path d="M14 109.242L21.325 195.322L32.0429 194.342L36.3324 127.814L40.1508 154.156L40.9155 196L50.6143 195.351L56 150.336L54.6788 106.74L17.8589 103L14 109.242Z" fill="#2F2E41"/>
<path d="M34.5 30C40.8513 30 46 25.0751 46 19C46 12.9249 40.8513 8 34.5 8C28.1487 8 23 12.9249 23 19C23 25.0751 28.1487 30 34.5 30Z" fill="#A0616A"/>
<path d="M31.0734 10.0989C31.0734 10.0989 36.1947 11.5064 38.8468 12.0695C41.4989 12.6325 41.2246 11.0373 41.2246 11.0373C41.2246 11.0373 44.6997 11.5064 44.5168 11.1311C44.3339 10.7557 45.9801 8.78516 44.0596 6.53304C42.1391 4.28092 42.6878 2.59186 42.6878 2.59186H41.0417L40.5844 1.93499H38.0237C38.0237 1.93499 35.1927 -0.61226 30.1628 0.138421C25.1329 0.889102 19.1846 2.87337 18.6359 5.97002C18.5614 6.39004 18.4635 6.85668 18.3497 7.34954C16.9743 13.3077 19.8967 18.8824 22.9277 24.1567C23.6726 25.4529 27.2758 28.2794 27.1836 26.3402C27.0915 24.4009 23.9401 20.0457 26.1349 19.7642C28.3298 19.4827 32.0794 13.7586 31.0734 10.0989Z" fill="#2F2E41"/>
<path d="M22.8759 34H42.2799L56 107.85C56 107.85 44.0385 108.892 37.2019 111.505C30.3652 114.118 19 105.536 19 105.536L22.8759 34Z" fill="#00B0FF"/>
<path d="M25.8476 42.333V34.0136L23.6989 34L8 44.3766L11.4065 101.229C11.4065 101.229 15.4383 120.195 21.5536 119.998C27.6689 119.802 32.3841 52.1866 25.8476 42.333Z" fill="#2F2E41"/>
<path d="M12.5622 45.5838L7.27986 44C7.27986 44 3.36935 45.1457 3.36935 49.0888C3.36935 53.0318 0 109.053 0 109.053L10.7035 110L13 81.5096L12.5622 45.5838Z" fill="#2F2E41"/>
<path d="M41.1208 39.8581L40.0477 34.4475L43.1282 34L54.2808 38.3393C54.2808 38.3393 64.3181 109.721 59.8571 111.89C55.3961 114.06 52.384 112.379 52.384 112.379C52.384 112.379 37.7111 59.7321 40.3081 52.6156L41.1208 39.8581Z" fill="#2F2E41"/>
<path d="M46 38.4875L47.9047 37.6735C47.9047 37.6735 53.4954 34.9534 56.6673 40.4462C59.8393 45.939 71 107.305 71 107.305L61.8168 109L54.9514 86.9156L46 38.4875Z" fill="#2F2E41"/>
</svg>
