<svg width="261" height="147" viewBox="0 0 261 147" fill="none" xmlns="http://www.w3.org/2000/svg">
<g clip-path="url(#clip0_4_822)">
<path d="M19.6367 146.927L19.362 146.419C23.0449 144.427 27.6285 141.949 30.0225 137.882C32.3825 133.873 32.4355 128.429 30.1607 123.674C28.2249 119.627 24.6688 116.002 19.877 113.19C18.9318 112.635 17.9397 112.109 16.9801 111.601C14.6608 110.372 12.2625 109.101 10.285 107.298C7.56135 104.815 5.50056 100.647 7.03653 96.9355C7.54168 95.7508 8.36897 94.7313 9.42447 93.993C10.48 93.2546 11.7214 92.827 13.0078 92.7585L13.0403 93.3351C11.8619 93.3976 10.7245 93.7891 9.75733 94.4652C8.79016 95.1413 8.0319 96.0749 7.56862 97.1601C6.14129 100.609 8.09957 104.524 10.6742 106.871C12.5976 108.625 14.9631 109.878 17.2506 111.091C18.2156 111.602 19.2135 112.131 20.1695 112.692C25.0609 115.563 28.696 119.274 30.6818 123.425C33.0383 128.35 32.9765 134.002 30.5203 138.175C28.0447 142.38 23.3827 144.901 19.6367 146.927Z" fill="#F1F1F1"/>
<path d="M16.6682 95.8019C19.4593 95.8019 21.7219 94.7032 21.7219 93.3478C21.7219 91.9924 19.4593 90.8937 16.6682 90.8937C13.8772 90.8937 11.6146 91.9924 11.6146 93.3478C11.6146 94.7032 13.8772 95.8019 16.6682 95.8019Z" fill="#F1F1F1"/>
<path d="M20.7112 111.97C23.5023 111.97 25.7648 110.871 25.7648 109.516C25.7648 108.161 23.5023 107.062 20.7112 107.062C17.9202 107.062 15.6576 108.161 15.6576 109.516C15.6576 110.871 17.9202 111.97 20.7112 111.97Z" fill="#F1F1F1"/>
<path d="M11.4702 114.569C14.2613 114.569 16.5239 113.47 16.5239 112.115C16.5239 110.759 14.2613 109.661 11.4702 109.661C8.67921 109.661 6.41663 110.759 6.41663 112.115C6.41663 113.47 8.67921 114.569 11.4702 114.569Z" fill="#F1F1F1"/>
<path d="M25.9092 128.138C28.7003 128.138 30.9628 127.04 30.9628 125.684C30.9628 124.329 28.7003 123.23 25.9092 123.23C23.1182 123.23 20.8556 124.329 20.8556 125.684C20.8556 127.04 23.1182 128.138 25.9092 128.138Z" fill="#F1F1F1"/>
<path d="M36.0164 128.138C38.8074 128.138 41.07 127.04 41.07 125.684C41.07 124.329 38.8074 123.23 36.0164 123.23C33.2254 123.23 30.9628 124.329 30.9628 125.684C30.9628 127.04 33.2254 128.138 36.0164 128.138Z" fill="#F1F1F1"/>
<path d="M261 4.45483H98.4767V81.5592H261V4.45483Z" fill="#E6E6E6"/>
<path d="M256.353 11.0667H103.124V75.3972H256.353V11.0667Z" fill="white"/>
<path d="M260.931 0H98.4073V6.90306H260.931V0Z" fill="#00B0FF"/>
<path d="M103.538 4.47249C104.245 4.47249 104.818 3.89965 104.818 3.19303C104.818 2.48641 104.245 1.91357 103.538 1.91357C102.831 1.91357 102.259 2.48641 102.259 3.19303C102.259 3.89965 102.831 4.47249 103.538 4.47249Z" fill="white"/>
<path d="M108.396 4.47249C109.102 4.47249 109.675 3.89965 109.675 3.19303C109.675 2.48641 109.102 1.91357 108.396 1.91357C107.689 1.91357 107.116 2.48641 107.116 3.19303C107.116 3.89965 107.689 4.47249 108.396 4.47249Z" fill="white"/>
<path d="M113.253 4.47249C113.96 4.47249 114.533 3.89965 114.533 3.19303C114.533 2.48641 113.96 1.91357 113.253 1.91357C112.546 1.91357 111.974 2.48641 111.974 3.19303C111.974 3.89965 112.546 4.47249 113.253 4.47249Z" fill="white"/>
<path d="M171.659 26.3335C171.495 26.3335 171.337 26.3988 171.221 26.515C171.105 26.6313 171.039 26.7889 171.039 26.9533C171.039 27.1177 171.105 27.2754 171.221 27.3916C171.337 27.5079 171.495 27.5732 171.659 27.5732H205.678C205.843 27.5732 206.001 27.5079 206.117 27.3916C206.233 27.2754 206.298 27.1177 206.298 26.9533C206.298 26.7889 206.233 26.6313 206.117 26.515C206.001 26.3988 205.843 26.3335 205.678 26.3335H171.659Z" fill="#E6E6E6"/>
<path d="M171.659 30.0529C171.495 30.0532 171.338 30.1187 171.222 30.2349C171.106 30.3511 171.041 30.5085 171.041 30.6727C171.041 30.8369 171.106 30.9943 171.222 31.1105C171.338 31.2267 171.495 31.2922 171.659 31.2925H189.027C189.191 31.2922 189.348 31.2267 189.464 31.1105C189.58 30.9943 189.645 30.8369 189.645 30.6727C189.645 30.5085 189.58 30.3511 189.464 30.2349C189.348 30.1187 189.191 30.0532 189.027 30.0529H171.659Z" fill="#E6E6E6"/>
<path d="M170.803 48.0555C170.639 48.0555 170.481 48.1208 170.365 48.2371C170.249 48.3533 170.183 48.511 170.183 48.6754C170.183 48.8398 170.249 48.9974 170.365 49.1137C170.481 49.2299 170.639 49.2952 170.803 49.2952H234.589C234.754 49.2952 234.912 49.2299 235.028 49.1137C235.144 48.9974 235.209 48.8398 235.209 48.6754C235.209 48.511 235.144 48.3533 235.028 48.2371C234.912 48.1208 234.754 48.0555 234.589 48.0555H170.803Z" fill="#E6E6E6"/>
<path d="M170.803 51.7749C170.639 51.7753 170.482 51.8407 170.366 51.9569C170.25 52.0731 170.185 52.2306 170.185 52.3947C170.185 52.5589 170.25 52.7164 170.366 52.8326C170.482 52.9488 170.639 53.0142 170.803 53.0146H217.938C218.102 53.0142 218.259 52.9488 218.375 52.8326C218.491 52.7164 218.556 52.5589 218.556 52.3947C218.556 52.2306 218.491 52.0731 218.375 51.9569C218.259 51.8407 218.102 51.7753 217.938 51.7749H170.803Z" fill="#E6E6E6"/>
<path d="M170.803 55.4102C170.639 55.4105 170.482 55.476 170.366 55.5922C170.25 55.7084 170.185 55.8658 170.185 56.03C170.185 56.1942 170.25 56.3516 170.366 56.4678C170.482 56.584 170.639 56.6495 170.803 56.6498H234.589C234.754 56.6495 234.911 56.584 235.027 56.4678C235.143 56.3516 235.208 56.1942 235.208 56.03C235.208 55.8658 235.143 55.7084 235.027 55.5922C234.911 55.476 234.754 55.4105 234.589 55.4102H170.803Z" fill="#E6E6E6"/>
<path d="M170.803 59.1296C170.639 59.13 170.482 59.1955 170.366 59.3117C170.25 59.4279 170.185 59.5853 170.185 59.7495C170.185 59.9136 170.25 60.0711 170.366 60.1873C170.482 60.3035 170.639 60.369 170.803 60.3693H217.938C218.102 60.369 218.259 60.3035 218.375 60.1873C218.491 60.0711 218.556 59.9136 218.556 59.7495C218.556 59.5853 218.491 59.4279 218.375 59.3117C218.259 59.1955 218.102 59.13 217.938 59.1296H170.803Z" fill="#E6E6E6"/>
<path d="M137.455 50.571C140.437 50.571 142.854 48.1545 142.854 45.1736C142.854 42.1927 140.437 39.7762 137.455 39.7762C134.474 39.7762 132.057 42.1927 132.057 45.1736C132.057 48.1545 134.474 50.571 137.455 50.571Z" fill="#A0616A"/>
<path d="M135.746 40.8557C135.746 40.8557 138.265 41.5304 139.57 41.8003C140.874 42.0702 140.739 41.3055 140.739 41.3055C140.739 41.3055 142.449 41.5304 142.359 41.3505C142.269 41.1706 143.079 40.226 142.134 39.1466C141.189 38.0671 141.459 37.2575 141.459 37.2575H140.649L140.425 36.9426H139.165C139.165 36.9426 137.772 35.7217 135.298 36.0815C132.824 36.4413 129.897 37.3924 129.627 38.8767C129.591 39.078 129.543 39.3017 129.487 39.5379C128.81 42.3938 130.248 45.0659 131.739 47.5939C132.105 48.2152 133.878 49.57 133.832 48.6405C133.787 47.711 132.237 45.6234 133.316 45.4885C134.396 45.3536 136.241 42.6099 135.746 40.8557Z" fill="#2F2E41"/>
<path d="M134.393 62.6224C133.351 62.5391 132.317 62.3693 131.303 62.1149L131.36 61.0386L131.833 52.4803L131.837 52.4147H141.347L142.839 60.2947L143.04 61.3579C142.646 61.5111 142.248 61.6555 141.841 61.7824C141.837 61.7824 141.837 61.7867 141.833 61.7867C141.268 61.9617 140.695 62.1149 140.117 62.2418C139.349 62.4074 138.571 62.5272 137.789 62.6005C137.184 62.6606 136.576 62.6898 135.968 62.688C135.443 62.6881 134.914 62.6662 134.393 62.6224Z" fill="#00B0FF"/>
<path d="M128.279 61.0999C127.885 60.9293 127.505 60.7455 127.128 60.553L126.966 60.4699C126.857 60.413 126.743 60.3517 126.634 60.2904C126.485 60.2073 126.34 60.1242 126.2 60.0411C126.065 59.9623 125.925 59.8792 125.789 59.7961C125.78 59.7917 125.776 59.7873 125.767 59.7873C125.295 59.4854 124.831 59.1747 124.384 58.8378C124.31 58.781 124.236 58.7241 124.161 58.6672L124.082 57.4071L124.196 57.3371L131.833 52.4804L131.938 52.4148L131.946 52.4104L133.023 52.4148V56.4226C133.631 57.3021 134.043 59.1441 134.297 61.5549C134.332 61.9006 134.362 62.255 134.393 62.6225C133.351 62.5392 132.317 62.3694 131.303 62.115C131.194 62.0931 131.089 62.0669 130.979 62.0362C130.342 61.8694 129.713 61.6678 129.098 61.4324C128.909 61.3624 128.726 61.288 128.542 61.2137L128.524 61.2049C128.445 61.1699 128.358 61.1349 128.279 61.0999Z" fill="#2F2E41"/>
<path d="M126.634 60.2904C126.485 60.2073 126.34 60.1242 126.2 60.0411C126.065 59.9623 125.925 59.8792 125.789 59.796C125.78 59.7917 125.776 59.7873 125.767 59.7873C125.295 59.4854 124.831 59.1747 124.384 58.8378C124.31 58.781 124.236 58.7241 124.161 58.6672C124.126 58.6366 124.091 58.6103 124.052 58.5797C123.772 58.3653 123.5 58.1422 123.238 57.9059C123.225 57.8971 123.216 57.884 123.203 57.8753C123.468 57.6714 123.765 57.5132 124.082 57.4071L124.393 57.499L126.608 58.164L126.621 59.061L126.634 60.2904Z" fill="#2F2E41"/>
<path d="M145.281 60.3035C145.15 60.3735 145.018 60.4436 144.887 60.5092C144.856 60.5267 144.83 60.5398 144.804 60.5529C144.629 60.6405 144.458 60.7279 144.283 60.8111C144.279 60.8154 144.27 60.8155 144.27 60.8198C144.261 60.8242 144.248 60.8286 144.239 60.833C143.846 61.0211 143.447 61.1961 143.04 61.358C142.646 61.5111 142.248 61.6555 141.841 61.7824C141.837 61.7824 141.837 61.7868 141.832 61.7868C141.268 61.9618 140.695 62.1149 140.117 62.2418C140.11 61.8824 140.158 61.5241 140.257 61.1786L140.261 61.1173L140.638 55.0268L140.134 52.4147L141.579 52.2003L149.522 56.4751C149.522 56.4751 148.646 57.3502 145.053 59.2141C144.736 59.3789 145.202 59.9273 145.281 60.3035Z" fill="#2F2E41"/>
<path d="M137.693 61.5505C137.124 61.603 136.546 61.6293 135.968 61.6293C135.408 61.6293 134.852 61.6074 134.297 61.5549C134.332 61.9006 134.362 62.255 134.393 62.6225C134.914 62.6663 135.443 62.6881 135.968 62.6881C136.576 62.6899 137.184 62.6606 137.789 62.6006C138.571 62.5273 139.349 62.4075 140.117 62.2418C140.11 61.8824 140.158 61.5241 140.257 61.1786L140.261 61.1174C139.417 61.3229 138.558 61.4677 137.693 61.5505ZM154.23 36.9959C153.306 34.34 151.813 31.9177 149.855 29.898C147.898 27.8783 145.524 26.3098 142.898 25.3018C140.272 24.2938 137.457 23.8706 134.651 24.0617C131.845 24.2528 129.114 25.0536 126.649 26.4083C124.184 27.763 122.044 29.6389 120.379 31.9053C118.714 34.1718 117.563 36.7741 117.007 39.5308C116.451 42.2875 116.503 45.1324 117.16 47.8669C117.816 50.6014 119.062 53.1598 120.809 55.3638C120.984 55.5825 121.163 55.8013 121.347 56.0113C121.365 56.0288 121.373 56.0419 121.386 56.055C121.838 56.576 122.319 57.0712 122.826 57.5383C122.949 57.6521 123.076 57.7658 123.203 57.8752C123.216 57.884 123.225 57.8971 123.238 57.9058C123.5 58.1421 123.772 58.3653 124.052 58.5796C124.091 58.6103 124.126 58.6365 124.161 58.6672C124.236 58.724 124.31 58.7809 124.384 58.8378C124.831 59.1747 125.295 59.4853 125.767 59.7872C125.776 59.7872 125.78 59.7916 125.789 59.796C125.925 59.8791 126.065 59.9622 126.2 60.041C126.341 60.1241 126.485 60.2073 126.634 60.2904C126.743 60.3517 126.857 60.4129 126.966 60.4698L127.128 60.5529C127.504 60.7454 127.885 60.9292 128.279 61.0999C128.358 61.1349 128.445 61.1698 128.524 61.2049L128.542 61.2136C128.725 61.288 128.909 61.3624 129.098 61.4324C129.713 61.6678 130.341 61.8693 130.979 62.0362C131.089 62.0668 131.194 62.0931 131.303 62.115C132.317 62.3694 133.351 62.5391 134.393 62.6225C134.914 62.6663 135.443 62.6881 135.968 62.6881C136.576 62.6898 137.184 62.6606 137.789 62.6006C138.571 62.5273 139.349 62.4075 140.117 62.2418C140.695 62.115 141.268 61.9618 141.833 61.7868C141.837 61.7868 141.837 61.7824 141.841 61.7824C142.248 61.6555 142.646 61.5112 143.04 61.358C143.447 61.1961 143.846 61.0211 144.239 60.833C144.248 60.8286 144.261 60.8242 144.27 60.8198C144.27 60.8155 144.279 60.8155 144.283 60.8111C144.458 60.728 144.629 60.6404 144.804 60.5529C144.83 60.5398 144.856 60.5267 144.887 60.5092C145.018 60.4436 145.15 60.3735 145.281 60.3036C145.29 60.2992 145.294 60.2948 145.303 60.2904C145.649 60.0979 145.99 59.8966 146.327 59.6823C146.419 59.6254 146.511 59.5685 146.603 59.5029C146.738 59.4197 146.87 59.3279 146.996 59.236C147.167 59.1178 147.338 58.9953 147.504 58.8684C147.559 58.8329 147.612 58.7935 147.662 58.7503C148.069 58.444 148.463 58.1202 148.839 57.779C151.693 55.2364 153.729 51.9047 154.688 48.2052C155.648 44.5057 155.489 40.6048 154.23 36.9959L154.23 36.9959ZM148.511 56.6501C148.037 57.0957 147.54 57.5163 147.023 57.9102C146.909 57.9977 146.791 58.0852 146.673 58.164C146.559 58.2515 146.445 58.3346 146.327 58.4134C146.226 58.4834 146.126 58.5534 146.021 58.619C146.012 58.6278 145.999 58.6321 145.99 58.6409C145.915 58.6934 145.837 58.7415 145.762 58.7897C145.53 58.9341 145.29 59.0785 145.053 59.2141C144.997 59.2447 144.944 59.2797 144.887 59.3103C144.856 59.3278 144.826 59.3453 144.791 59.3628C144.66 59.4372 144.528 59.5029 144.397 59.5729C144.379 59.586 144.358 59.5904 144.34 59.6035C144.334 59.6045 144.327 59.6076 144.323 59.6122C144.231 59.6604 144.139 59.7041 144.047 59.7479C143.968 59.7873 143.894 59.8266 143.815 59.8616C143.495 60.0148 143.167 60.1591 142.839 60.2948C142.493 60.4348 142.143 60.5617 141.789 60.6798C141.701 60.7104 141.609 60.7454 141.517 60.7717C141.102 60.903 140.686 61.0211 140.261 61.1174C139.417 61.3229 138.558 61.4677 137.693 61.5505C137.124 61.603 136.546 61.6293 135.968 61.6293C135.408 61.6293 134.852 61.6074 134.297 61.5549C133.305 61.4642 132.323 61.2915 131.36 61.0386C131.325 61.0298 131.286 61.0211 131.251 61.0123C130.461 60.8065 129.687 60.5432 128.936 60.2248C128.896 60.2073 128.852 60.1941 128.817 60.1767C128.774 60.1591 128.734 60.146 128.699 60.1285C128.655 60.111 128.616 60.0935 128.577 60.076C128.249 59.9316 127.929 59.7741 127.61 59.6122L127.461 59.5335C127.176 59.3847 126.896 59.2316 126.621 59.0609C126.524 59.0084 126.424 58.9472 126.327 58.8859C126.218 58.8203 126.109 58.7503 126.003 58.6803C125.977 58.6628 125.951 58.6453 125.925 58.6278C125.68 58.4615 125.43 58.2952 125.194 58.1159C125.028 57.9933 124.866 57.8752 124.704 57.7483C124.599 57.6696 124.494 57.5864 124.393 57.4989C124.327 57.4508 124.262 57.3939 124.196 57.337C124.109 57.2627 124.021 57.1883 123.934 57.1095C123.798 57.0001 123.671 56.8776 123.548 56.7639C123.056 56.3099 122.589 55.8277 122.152 55.32C122.004 55.1537 121.863 54.9874 121.728 54.8125C121.696 54.778 121.667 54.7414 121.64 54.7031C119.437 51.9223 118.091 48.5606 117.766 45.0281C117.441 41.4955 118.152 37.9448 119.811 34.8091C121.47 31.6734 124.007 29.0883 127.11 27.3691C130.214 25.65 133.751 24.8711 137.29 25.1275C140.829 25.384 144.217 26.6646 147.04 28.8133C149.863 30.9619 152 33.8856 153.19 37.2277C154.38 40.5699 154.571 44.1859 153.74 47.6347C152.909 51.0836 151.092 54.2161 148.511 56.6501L148.511 56.6501Z" fill="#3F3D56"/>
<path d="M47.1967 143.406L50.7372 143.406L52.4213 129.753L47.1962 129.753L47.1967 143.406Z" fill="#A0616A"/>
<path d="M46.2938 142.251L53.2661 142.25H53.2664C54.4448 142.25 55.5749 142.718 56.4082 143.551C57.2414 144.385 57.7096 145.514 57.7097 146.693V146.837L46.294 146.837L46.2938 142.251Z" fill="#2F2E41"/>
<path d="M60.4806 143.406L64.021 143.406L65.7051 129.753L60.48 129.753L60.4806 143.406Z" fill="#A0616A"/>
<path d="M59.5776 142.251L66.5499 142.25H66.5502C67.7286 142.25 68.8587 142.718 69.692 143.551C70.5252 144.385 70.9934 145.514 70.9935 146.693V146.837L59.5778 146.837L59.5776 142.251Z" fill="#2F2E41"/>
<path d="M36.4544 89.4568C36.7441 89.1466 36.9623 88.7766 37.0936 88.373C37.2249 87.9693 37.2661 87.5418 37.2142 87.1206C37.1624 86.6993 37.0187 86.2945 36.7935 85.9347C36.5683 85.575 36.2669 85.269 35.9105 85.0382L38.3704 75.0183L33.319 76.8179L31.7575 86.0571C31.4095 86.6813 31.3026 87.4114 31.4571 88.1091C31.6115 88.8068 32.0166 89.4237 32.5956 89.8427C33.1745 90.2618 33.8871 90.4539 34.5983 90.3828C35.3095 90.3117 35.9699 89.9822 36.4544 89.4568Z" fill="#9E616A"/>
<path d="M74.0364 88.5905C73.7466 88.2803 73.5284 87.9104 73.3971 87.5068C73.2658 87.1031 73.2247 86.6756 73.2765 86.2543C73.3284 85.8331 73.472 85.4283 73.6972 85.0685C73.9225 84.7088 74.2239 84.4027 74.5802 84.172L72.1204 74.1521L77.1718 75.9517L78.7332 85.1909C79.0812 85.8151 79.1881 86.5452 79.0337 87.2429C78.8792 87.9406 78.4741 88.5575 77.8951 88.9765C77.3162 89.3956 76.6036 89.5877 75.8924 89.5166C75.1812 89.4455 74.5208 89.116 74.0364 88.5905Z" fill="#9E616A"/>
<path d="M41.1125 82.433L46.0198 139.907L53.1999 139.252L56.0736 94.833L58.6316 112.421L59.1439 140.359L65.6414 139.926L69.2494 109.871L68.3643 80.7628L43.6977 78.2654L41.1125 82.433Z" fill="#2F2E41"/>
<path d="M54.6115 30.1331C58.724 30.1331 62.0579 26.7999 62.0579 22.6882C62.0579 18.5766 58.724 15.2434 54.6115 15.2434C50.499 15.2434 47.1652 18.5766 47.1652 22.6882C47.1652 26.7999 50.499 30.1331 54.6115 30.1331Z" fill="#A0616A"/>
<path d="M52.2535 16.7324C52.2535 16.7324 55.7285 17.663 57.528 18.0352C59.3276 18.4075 59.1414 17.3528 59.1414 17.3528C59.1414 17.3528 61.4994 17.663 61.3753 17.4148C61.2512 17.1666 62.3682 15.8638 61.065 14.3748C59.7619 12.8858 60.1342 11.7691 60.1342 11.7691H59.0173L58.707 11.3348H56.9695C56.9695 11.3348 55.0486 9.65075 51.6356 10.1471C48.2227 10.6434 44.1866 11.9553 43.8143 14.0026C43.7638 14.2803 43.6973 14.5888 43.6201 14.9146C42.6868 18.8538 44.6698 22.5395 46.7264 26.0266C47.2319 26.8836 49.6767 28.7523 49.6142 27.4702C49.5517 26.1881 47.4133 23.3086 48.9026 23.1225C50.3919 22.9364 52.9361 19.1519 52.2535 16.7324Z" fill="#2F2E41"/>
<path d="M46.8629 32.6763H59.9768L69.2494 81.6358C69.2494 81.6358 61.1654 82.3269 56.5449 84.0593C51.9245 85.7916 44.2434 80.1021 44.2434 80.1021L46.8629 32.6763Z" fill="#00B0FF"/>
<path d="M48.5 38.2052V32.6763L47.0151 32.6672L36.1666 39.5633L38.5206 77.3459C38.5206 77.3459 41.3068 89.9507 45.5327 89.82C49.7585 89.6893 53.017 44.7537 48.5 38.2052Z" fill="#2F2E41"/>
<path d="M39.6513 40.6069L36.1666 39.5632C36.1666 39.5632 33.5869 40.3182 33.5869 42.9167C33.5869 45.5152 31.3643 82.4331 31.3643 82.4331L38.4251 83.057L39.9401 64.2819L39.6513 40.6069Z" fill="#2F2E41"/>
<path d="M58.9994 36.2761L58.3048 32.6762L60.2989 32.3784L67.5184 35.2656C67.5184 35.2656 74.0159 82.7599 71.1281 84.2035C68.2403 85.6471 66.2905 84.5287 66.2905 84.5287C66.2905 84.5287 56.7922 49.4995 58.4734 44.7645L58.9994 36.2761Z" fill="#2F2E41"/>
<path d="M62.4648 35.9875L63.6969 35.4513C63.6969 35.4513 67.3133 33.6596 69.3652 37.2777C71.417 40.8957 78.6364 81.3164 78.6364 81.3164L72.6962 82.4331L68.2552 67.8864L62.4648 35.9875Z" fill="#2F2E41"/>
<path d="M110.313 147H0.288778C0.21219 147 0.138737 146.97 0.084581 146.915C0.0304246 146.861 0 146.788 0 146.711C0 146.635 0.0304246 146.561 0.084581 146.507C0.138737 146.453 0.21219 146.423 0.288778 146.423H110.313C110.39 146.423 110.463 146.453 110.518 146.507C110.572 146.561 110.602 146.635 110.602 146.711C110.602 146.788 110.572 146.861 110.518 146.915C110.463 146.97 110.39 147 110.313 147Z" fill="#CACACA"/>
</g>
<defs>
<clipPath id="clip0_4_822">
<rect width="261" height="147" fill="white"/>
</clipPath>
</defs>
</svg>
