<svg width="19" height="18" viewBox="0 0 19 18" fill="none" xmlns="http://www.w3.org/2000/svg">
<path d="M4.60607 0.5H5.00467C7.10386 0.808684 7.67297 1.99332 9.50222 1.99332C11.3315 1.99332 11.9006 0.808684 14.0002 0.5H14.2261C14.7873 0.5 15.3431 0.60993 15.8616 0.823512C16.3802 1.03709 16.8513 1.35015 17.2482 1.7448C17.6451 2.13945 17.9599 2.60796 18.1747 3.1236C18.3895 3.63923 18.5 4.19188 18.5 4.75V5.03005C18.5 6.32876 17.1098 7.81134 16.7004 9.21608C16.2663 10.7076 15.9689 11.9271 15.8816 13.2026C15.6769 16.1914 14.6521 17.5 13.5512 17.5C11.9073 17.5 10.4479 10.8007 9.53056 10.8007C8.61279 10.8007 6.79298 17.5 5.45321 17.5C4.63577 17.5 3.57718 17.0191 3.17947 13.2026C3.02111 11.6842 2.75388 10.7631 2.30399 9.21608C1.90809 7.85608 0.572817 6.23124 0.504433 4.77282C0.478637 4.22124 0.565614 3.6702 0.760103 3.153C0.954591 2.63581 1.25255 2.16322 1.63596 1.76381C2.01937 1.36439 2.48027 1.04646 2.99078 0.829237C3.50128 0.612012 4.05079 0.500009 4.60607 0.5Z" fill="#EFCCD3" stroke="url(#paint0_linear_91_423)" stroke-linecap="round" stroke-linejoin="round"/>
<path d="M7.5 4.5L11.5 6.5M7.5 6.5L11.5 4.5" stroke="url(#paint1_linear_91_423)" stroke-linecap="round" stroke-linejoin="round"/>
<defs>
<linearGradient id="paint0_linear_91_423" x1="0.5" y1="8.43333" x2="18.0686" y2="8.51634" gradientUnits="userSpaceOnUse">
<stop stop-color="#FF7070"/>
<stop offset="1" stop-color="#FF7070" stop-opacity="0.65"/>
</linearGradient>
<linearGradient id="paint1_linear_91_423" x1="7.5" y1="5.43333" x2="11.4039" y2="5.46817" gradientUnits="userSpaceOnUse">
<stop stop-color="#FF7070"/>
<stop offset="1" stop-color="#FF7070" stop-opacity="0.65"/>
</linearGradient>
</defs>
</svg>
